<?xml version="1.0" encoding="iso-8859-1"?>
<!-- Generator: Adobe Illustrator 19.0.0, SVG Export Plug-In . SVG Version: 6.00 Build 0)  -->
<svg version="1.1" id="Layer_1" xmlns="http://www.w3.org/2000/svg" xmlns:xlink="http://www.w3.org/1999/xlink" x="0px" y="0px"
	 viewBox="0 0 330 330" style="enable-background:new 0 0 330 330;" xml:space="preserve">
<g id="XMLID_2_">
	<path style="fill:#ffffff" id="XMLID_4_" d="M83.174,202.523c0,4.37,1.849,6.677,6.084,8.738v-16.344C83.174,196.699,83.174,200.802,83.174,202.523z"/>
	<path style="fill:#ffffff" id="XMLID_5_" d="M300,120H30c-8.284,0-15,6.716-15,15v180c0,8.284,6.716,15,15,15h270c8.284,0,15-6.716,15-15V135
		C315,126.716,308.284,120,300,120z M102.375,269.4v3.393c0,3.307-3.12,6.207-6.677,6.207c-3.682,0-6.678-2.785-6.678-6.207v-2.609
		c-14.329-1.493-23.27-10.225-23.27-16.345c0-3.84,3.272-8.305,7.491-8.305c2.563,0,4.185,1.687,5.753,3.317
		c1.996,2.076,4.594,4.779,10.025,5.81v-26.62c-9.901-3.545-21.177-8.526-21.177-24.823c0-13.012,7.66-21.455,21.177-23.589v-2.228
		c0-3.427,2.996-6.215,6.678-6.215c3.557,0,6.677,2.904,6.677,6.215v1.896c7.61,0.949,17.688,3.945,17.688,10.768
		c0,3.396-2.627,8.309-7.376,8.309c-1.676,0-3.096-0.724-4.6-1.491c-1.426-0.727-3.207-1.635-5.713-2.231v21.49
		c8.072,3.112,19.783,9.207,19.783,27.105C122.158,257.111,115.003,266.475,102.375,269.4z M240,270h-80c-8.284,0-15-6.716-15-15
		c0-8.284,6.716-15,15-15h80c8.284,0,15,6.716,15,15C255,263.284,248.284,270,240,270z M240,210h-80c-8.284,0-15-6.716-15-15
		s6.716-15,15-15h80c8.284,0,15,6.716,15,15S248.284,210,240,210z"/>

</g>
<g>
</g>
<g>
</g>
<g>
</g>
<g>
</g>
<g>
</g>
<g>
</g>
<g>
</g>
<g>
</g>
<g>
</g>
<g>
</g>
<g>
</g>
<g>
</g>
<g>
</g>
<g>
</g>
<g>
</g>
</svg>
