<svg width="100" height="100" viewBox="0 0 100 100" fill="none" xmlns="http://www.w3.org/2000/svg">
<path d="M86.0833 29.1666C85.5444 28.1852 84.7533 27.3653 83.7917 26.7916L53.2083 9.12498C52.2173 8.61002 51.1168 8.34119 50 8.34119C48.8832 8.34119 47.7827 8.61002 46.7917 9.12498L16.2083 26.7916C15.2713 27.3935 14.4914 28.2103 13.9334 29.1741C13.3754 30.1379 13.0554 31.221 13 32.3333V67.6666C13.0302 68.7831 13.3458 69.8733 13.9167 70.8333C14.4556 71.8148 15.2467 72.6347 16.2083 73.2083L46.7917 90.875C47.7827 91.3899 48.8832 91.6588 50 91.6588C51.1168 91.6588 52.2173 91.3899 53.2083 90.875L83.7917 73.2083C84.7533 72.6347 85.5444 71.8148 86.0833 70.8333C86.6542 69.8733 86.9698 68.7831 87 67.6666V32.3333C86.9698 31.2168 86.6542 30.1266 86.0833 29.1666ZM50 74.6666C45.683 74.6473 41.4467 73.4954 37.7143 71.3259C33.982 69.1564 30.8844 66.0454 28.7311 62.3037C26.5778 58.5621 25.4442 54.3208 25.4436 50.0037C25.443 45.6867 26.5754 41.4451 28.7276 37.7028C30.8799 33.9605 33.9766 30.8486 37.7083 28.6781C41.44 26.5075 45.676 25.3544 49.993 25.3338C54.31 25.3133 58.5567 26.4261 62.3089 28.5611C66.0611 30.696 69.1873 33.7783 71.375 37.5L66.6667 40.4583L65.1667 41.2916L61 43.8333C59.6697 41.3664 57.5489 39.4181 54.9782 38.3014C52.4075 37.1847 49.5361 36.9644 46.8251 37.6758C44.1141 38.3872 41.7209 39.989 40.0297 42.2241C38.3386 44.4591 37.4476 47.1977 37.5 50C37.4882 52.1684 38.0641 54.2994 39.1667 56.1666C40.2809 58.0035 41.8497 59.5222 43.7217 60.5761C45.5937 61.6301 47.7058 62.1838 49.8542 62.1838C52.0025 62.1838 54.1146 61.6301 55.9866 60.5761C57.8587 59.5222 59.4275 58.0035 60.5417 56.1666L71.375 62.5C69.1816 66.215 66.0552 69.2922 62.3058 71.4264C58.5564 73.5605 54.3142 74.6775 50 74.6666ZM74.6667 51.375H71.9167V54.1666H69.2083V51.4166H66.6667V48.6666H69.4167V45.8333H72.125V48.5833H74.875L74.6667 51.375ZM84.9583 51.375H82.2083V54.1666H79.4583V51.4166H76.75V48.6666H79.4583V45.8333H82.2083V48.5833H84.9583V51.375Z" fill="white"/>
<rect x="24" y="29" width="61" height="42" rx="3" fill="white"/>
<rect x="31" y="22" width="33" height="53" rx="3" fill="white"/>
<path d="M53.7795 43.463V34.5426C56.6885 35.2546 59.5323 36.6108 61.859 38.7442L61.8687 38.731C62.0425 38.8695 62.2534 38.9648 62.4934 38.9648C62.8092 38.9648 63.0801 38.8122 63.2672 38.5872L63.2804 38.5898L67.0409 33.2888L67.0321 33.2844C67.1865 33.1061 67.2888 32.8803 67.2888 32.6262C67.2888 32.3262 67.1538 32.0632 66.9474 31.8771C63.4595 28.6557 59.0064 26.7216 53.7795 26.1401V21.0173H53.7786C53.7786 20.4553 53.3233 20 52.7613 20H48.7219C48.1599 20 47.7046 20.4553 47.7046 21.0173V26.0104C38.9784 26.9148 33.8079 32.4744 33.8079 39.0028C33.8079 47.7934 41.0474 50.3143 47.7046 51.9307V61.9487C43.4297 61.1828 39.9163 58.9673 37.526 56.487C37.5093 56.4685 37.4916 56.4526 37.4731 56.4359C37.459 56.4209 37.4413 56.4059 37.4272 56.3909L37.4202 56.4006C37.2446 56.2576 37.0302 56.1597 36.7858 56.1597C36.4011 56.1597 36.0781 56.3812 35.9052 56.6962L35.8928 56.6944L32.2532 62.0978L32.2576 62.1066C32.1024 62.2848 32 62.5107 32 62.7666C32 63.0904 32.1606 63.3657 32.3953 63.5519L32.3856 63.566C35.9405 67.1209 40.9177 69.7061 47.7046 70.2885V75.0883C47.7046 75.6504 48.1599 76.1057 48.7219 76.1057H52.7613C53.3233 76.1057 53.7786 75.6495 53.7786 75.0883H53.7795V70.2876C63.2813 69.317 68 63.7601 68 56.5841C68 47.7299 60.5019 45.1429 53.7795 43.463ZM47.7037 41.9753C45.0541 41.1362 43.2435 40.1657 43.2435 38.2907C43.2435 36.0937 44.86 34.5426 47.7037 34.1544V41.9753ZM53.7795 62.0784V53.4174C56.6241 54.3218 58.6279 55.3577 58.6279 57.4894C58.6279 59.5584 57.0759 61.4316 53.7795 62.0784Z" fill="black"/>
</svg>
